<?xml version="1.0" encoding="utf-8"?>
<!-- Generator: Adobe Illustrator 18.1.1, SVG Export Plug-In . SVG Version: 6.00 Build 0)  -->
<!DOCTYPE svg PUBLIC "-//W3C//DTD SVG 1.1//EN" "http://www.w3.org/Graphics/SVG/1.1/DTD/svg11.dtd">
<svg version="1.1" id="Layer_1" xmlns="http://www.w3.org/2000/svg" xmlns:xlink="http://www.w3.org/1999/xlink" x="0px" y="0px"
	 viewBox="0 0 283.5 283.5" enable-background="new 0 0 283.5 283.5" xml:space="preserve">
<g>
	<path fill="#1D1D1B" d="M262.1,139.7c0.2-3.2,0.3-6.5,0.3-9.8c6.6-5.5,10.6-14.6,10.2-23.1c-0.3-6.7-3.2-12.3-8.2-15.7
		c-2.4-1.7-5.2-2.6-8.2-3c-2.4-7.8-5.6-15.3-9.5-22.6c-10.5-19.7-24.4-34.7-41.7-45.1C187.7,10,167.4,4.8,144.3,4.8
		c-35,0-64.4,13.2-88,39.6C42.6,59.7,32.8,76.8,27.1,95.7c-2.3,1.3-4.5,2.8-6.7,4.6c-6.3,5.2-9.9,13.6-9.6,21.8
		c0.3,7,3.4,12.9,8.8,16.6c0.4,0.3,0.9,0.5,1.3,0.8v0.2H10.8v8.4h10.3h58.6H204h57.3h11.4v-8.4H262.1z M119.7,96.9
		c0.4-5.5-2.5-7.8-4.2-8.7c-3.6-1.9-8.4-1-10.2,0.4c-1.2,1-2.2,2.4-2.8,4.2c-0.7-1.1-1.5-2.1-2.4-2.9C96,86,89.5,84.5,83.6,85.7
		c0.8-4,1.7-7.8,2.7-11.4c9.7-4.2,20-4.8,30.5,0.8c1,0.5,2,1.2,2.9,1.9c3.9,3.1,6.6,7.8,7.4,12.7c0.8,4.9-0.5,9.4-3.7,12.7
		c-0.8,0.9-2,1.6-3.3,2.2c-1.7,0.7-3.7,1.1-5.7,1.1c-2.6-0.1-4.7-0.9-6-2.3c-1.5-1.7-2.3-4.3-2-6.9c0.2-1.9,0.9-3.6,1.8-4.4
		c0.6-0.4,3.5-0.9,5.4,0.2c0.4,0.3,1.8,1.1,1.6,4.2L119.7,96.9z M82.6,91.1c4.7-1.6,10.7-0.8,14.1,2.3c2.7,2.5,4.2,7.2,3.7,11.8
		c-0.3,3-1.4,5.4-3,6.3c-0.3,0.2-0.6,0.3-0.9,0.5c-4.9-3.6-10-7-15.4-10.1C81.6,98.2,82.1,94.6,82.6,91.1z M80.3,110.5
		c0.6,1.7,1.7,3.2,3.4,4.4c3.2,2.4,7.8,3.2,11.8,2.5c2.7,2,5.3,4.1,7.9,6.1c2.2,1.7,4.6,3.2,7,4.6c-9.7,2.7-20,2-28.2-4.8
		c-0.9-0.7-1.7-1.6-2.5-2.4C79.9,117.4,80.1,113.9,80.3,110.5z M106.5,119.7c-1.8-1.5-3.7-2.9-5.6-4.4c2.3-1.8,3.9-4.8,4.4-8.5
		c2.1,2.2,5.3,3.5,9,3.6c1.4,0,2.8-0.1,4.1-0.4c0.6-0.1,1.1-0.2,1.7-0.4c2.9-0.9,4.9-2.4,7.1-4.4c0.3,3.9,3,7.5,5.6,10.1
		c-1.8,1.5-3.7,2.9-5.5,4.4c-2.2,1.7-4.6,3.2-7.1,4.6c-1.1,0.6-2.2,1.2-3.4,1.7C113.1,124.2,109.6,122.1,106.5,119.7z M130.4,123.6
		c2.5-2,5.1-4.1,7.8-6.1c4.1,0.7,8.7-0.2,11.8-2.5c2.7-2,4-4.9,3.9-8.1c2-1.2,4-2.3,6-3.3c0,0.3,0,0.6,0.1,0.9
		c0.2,4.3-1,8.7-3.1,12.6c0,0,0,0.1-0.1,0.1c-1.4,2.4-3.2,4.6-5.3,6.4c-8.2,6.8-18.5,7.5-28.2,4.8
		C125.8,126.8,128.2,125.3,130.4,123.6z M137,93.5c4-3.7,11.9-4.2,16.7-1.1c0.7,0.6,1.4,1.2,2.1,1.7c1.4,1.4,2.4,2.9,3,4.5
		c-7.5,3.7-14.8,8.5-21.6,13.4c-0.3-0.1-0.6-0.3-0.9-0.5c-1.6-1-2.7-3.3-3-6.3C132.8,100.7,134.3,96,137,93.5z M156.7,88.4
		c-0.6-0.4-1.2-0.7-1.8-1c-1-1.4-1.5-2.8-1.3-4c0.4-2.8,3.5-6,6.4-6.7c1.8-0.4,3.3,0.2,4.4,1.9l3.5-2.4c-2.1-3.1-5.3-4.5-8.9-3.7
		c-4.6,1-9,5.6-9.7,10.2c-0.1,0.9-0.1,1.9,0.1,2.9c-5.7-1-12,0.5-16,4.2c-0.2,0.2-0.4,0.4-0.6,0.7c2.6-11.3,9.6-21.6,21.5-23.6
		c6-1,12.7,1,17.1,5.1c0.7,0.7,1.5,1.5,2.1,2.4c1.4,2,2.5,4.7,2.2,8.1c-0.2,2-1.1,4.1-2.5,5.8c-1.9,2.5-4.7,4.3-7.5,4.6
		c-1.7,0.2-3.5-0.2-5.4-1C159.4,90.6,158.1,89.4,156.7,88.4z M179.1,75.5c3.9-2,7.7-4.2,11.3-6.3c1.6-0.9,3.2-1.7,4.9-2.3
		c2.7,7.9,4.7,16.7,6.2,26.4c-8.4-3.1-17.1-3.1-25.9-1c2.5-2.6,4.2-5.9,4.6-9.4C180.4,80.4,180,77.8,179.1,75.5z M168,115.3
		c0.8,0,1.5,0.2,2.2,0.6c1.3,0.8,2.2,1.6,2.7,2.5c1.2,1.8,1,3.7,0,5c-0.4,0.6-1.1,1.1-1.8,1.4c-0.9,0.3-1.5,1.1-1.5,2v0.2
		c0,1.7,1.7,3,3.2,2.4c0,0,0.1,0,0.1,0c4.2-1.7,6.9-6.6,5.1-11.7c-1-2.7-2.8-4.9-5.2-6.1c-2.1-1.1-4.5-1.6-7-1.2
		c-0.6,0.1-1.1,0.2-1.6,0.4c0.5-2.2,0.7-4.5,0.6-6.7c0-1-0.2-2-0.3-2.9c2.8-1.3,5.7-2.4,8.5-3.2c10-3,19.8-3.3,29,1.1
		c0.7,5.5,1.2,11.3,1.5,17.3c-3.2-1.4-6.9-1.3-8.6-0.4c-1.4,0.7-2.6,1.9-3.6,3.4h0c0,0-0.1,0.1-0.1,0.1c-0.1,0.2-0.2,0.4-0.3,0.5
		c-4.2,6.8-11.6,12.1-18.2,13.2c-0.8,0.1-1.6,0.2-2.4,0.2c-5.7,0-10.3-4.6-10.3-10.3C160.3,118.8,163.7,115.3,168,115.3z
		 M261.6,95.1c4.7,3.3,5.9,8.3,6.1,11.8c0.2,5.6-1.8,11.5-5.4,16c-0.2-3.7-0.5-7.3-0.9-10.8c0.2-0.7,0.2-1.3,0.2-2.1
		c0-0.7-0.3-1.4-0.8-1.8c-0.8-5-1.8-10-3.1-14.8C259.2,93.7,260.5,94.3,261.6,95.1z M97.1,47.9c11.8-19.7,26.7-29.5,44.6-29.5
		c18.1,0,33,9.8,44.8,29.4c2.7,4.4,5,9.3,7.1,14.7c-1.9,0.8-3.8,1.7-5.6,2.7c-3.6,2.1-7.4,4.3-11.2,6.3c-0.7-0.9-1.5-1.8-2.4-2.6
		c-0.2-0.2-0.4-0.4-0.6-0.5c-5.3-4.6-13.2-6.9-20.2-5.7c-11.9,2-19.5,11-23.3,21.6c-2-5.4-5.9-10-10.8-12.8
		c-0.2-0.1-0.4-0.2-0.6-0.3c-5.9-3.2-11.8-4.6-17.5-4.6c-4.6,0-9.1,0.9-13.5,2.4C90.4,60.9,93.5,54,97.1,47.9z M15.8,121.9
		c-0.3-6.7,2.7-13.5,7.8-17.8c0.5-0.4,1-0.8,1.6-1.2c-2.4,9.7-3.8,19.9-4.1,30.5C17.8,130.7,16,126.7,15.8,121.9z M79.4,139.7
		c0-1.4,0-2.8,0-4.2c0-2.6,0-5.2,0.1-7.8c11,8.8,25,8.5,37.3,3.6c1.1,0.5,2.3,0.9,3.4,1.2c11.6,3.7,24.3,3.2,34.4-5.2
		c0.3-0.3,0.6-0.6,1-0.9c1.5,6.8,7.6,11.9,14.9,11.9c0.8,0,1.6,0,2.4-0.1c6-0.7,11.8-4,16.3-8.2c0.2,1.7,0.8,3.4,1.6,4.8
		c1.2,2.1,3.1,3.7,5.4,4.9H79.4z M201.1,136.1c-2.8-0.6-4.8-2-5.9-3.8c-1.2-2.1-1.5-5-0.7-7.8c0.2-0.7,0.5-1.4,0.8-2
		c0.1-0.2,0.3-0.5,0.4-0.7c0.5-0.7,1-1.2,1.6-1.5c0.7-0.3,3.9-0.2,5.6,1.3c0.3,0.2,0.9,0.8,1,1.9c0.1,3.8,0.2,7.8,0.2,11.8
		c0,0.3,0,0.7,0,1C203.2,136.5,202.1,136.3,201.1,136.1z"/>
	<path fill="#1D1D1B" d="M202.7,179.1H81.1H23.1H10.8v8.4h10.5c-0.6,0.3-1.2,0.6-1.7,1c-5.3,3.7-8.5,9.6-8.8,16.6
		c-0.4,8.2,3.3,16.6,9.6,21.8c3.6,3,7.3,5.2,11.1,6.7c5.5,2.2,11.3,3,17,2.7c2.1,2.5,4.3,4.9,6.6,7.3C78,266.5,105.5,278,137.6,278
		c29,0,54.2-9.3,75.5-28c0.5,0.4,1,0.7,1.5,0.9c4.6,2,11.3,0.7,14.9-3c2.8-2.8,3.4-6.5,1.7-10.2l-4.2,1.9c0.9,2,0.6,3.6-0.8,5.1
		c-2.2,2.2-6.7,3.2-9.6,2.1c3.4-3.2,6.6-6.6,9.8-10.3c2.2-2.6,4.3-5.1,6.3-7.8c2.8,2.4,3.9,5.6,4.4,8.2c1.2,6.4-0.8,13.7-5.2,18.6
		c-10.7,11.9-1.8,8.5,3.4,3.1c5.6-5.7,7.8-14.8,6.3-22.6c0-0.3-0.1-0.5-0.2-0.8c5.9,5.2,16.2,5.7,22.8,1.1c5-3.5,7.9-9.1,8.2-15.7
		c0.4-8.6-3.6-17.6-10.2-23.2c-2.7-2.2-5.8-3.9-9.2-5c0.6-1.6,1.2-3.2,1.8-4.9h17.8v-8.4h-15.2H202.7z M167.7,227.3
		c-1-0.4-2-0.8-3-1.3c0.2-0.9,0.3-1.9,0.3-2.9c0.1-2.2-0.1-4.5-0.6-6.7c0.5,0.2,1.1,0.3,1.6,0.4c1.5,0.2,3,0.2,4.4-0.2
		c3.5-0.9,6.5-3.5,7.8-7.1c1.8-5.1-0.9-9.9-5.1-11.7c-0.1,0-0.2-0.1-0.3-0.1c-1.5-0.4-3,0.8-3,2.5v0.2c0,0.9,0.6,1.7,1.5,2
		c0.4,0.2,0.8,0.4,1.2,0.7c1.9,1.6,2.3,4.7-0.9,7.3c-0.4,0.3-0.7,0.6-1.2,0.8c-0.7,0.4-1.4,0.6-2.2,0.6c-4.3,0-7.8-3.5-7.8-7.8
		c0-5.7,4.6-10.3,10.3-10.3c0.8,0,1.5,0.1,2.3,0.2c6.6,1,14,6.3,18.2,13.2c0.1,0.2,0.2,0.4,0.3,0.6c0,0,0.1,0.1,0.1,0.1l0,0
		c1,1.5,2.2,2.7,3.6,3.4c0.4,0.2,0.9,0.4,1.5,0.5c-2.2,7.4-4.9,14-8.1,19.7C181.7,231.7,174.7,230.1,167.7,227.3z M201.2,191.1
		c-0.9,5.6-2,10.9-3.2,15.8c-0.2,0-0.4-0.1-0.6-0.1c-0.6-0.3-1.1-0.8-1.6-1.6c-0.1-0.2-0.3-0.5-0.4-0.7c-0.3-0.6-0.6-1.3-0.8-2
		c-0.8-2.7-0.5-5.6,0.7-7.8C196.2,193.1,198.3,191.8,201.2,191.1C201.1,191.1,201.2,191.1,201.2,191.1z M196.3,187.6
		c-2.4,1.2-4.3,2.8-5.4,4.9c-0.8,1.5-1.4,3.1-1.6,4.9c-4.5-4.2-10.2-7.5-16.1-8.2c-0.9-0.1-1.7-0.2-2.6-0.2
		c-7.3,0-13.4,5.1-14.9,11.9c-0.3-0.3-0.6-0.6-1-0.9c-10.1-8.4-22.9-9-34.5-5.2c-1.1,0.4-2.2,0.8-3.3,1.2
		c-10.8-4.3-22.9-5.1-33.1,0.7c-0.6-3-1.1-6-1.6-9.1H196.3z M153.9,220.4c0.2-3.2-1.2-6.1-3.9-8.1c-3.2-2.4-7.8-3.2-11.8-2.5
		c-2.7-2-5.3-4-7.8-6.1c-2.2-1.7-4.6-3.3-7.1-4.6c9.7-2.7,20-2,28.2,4.8c2.1,1.8,3.9,4,5.3,6.4c0,0,0,0.1,0.1,0.1
		c2.2,3.8,3.3,8.3,3.1,12.6c0,0.3,0,0.6-0.1,0.9C157.9,222.7,155.9,221.6,153.9,220.4z M158.7,228.6c-0.9,2.2-2.4,4.4-4.9,6.1
		c-4.8,3.3-12.8,2.9-16.9-0.9c-2.7-2.5-4.2-7.2-3.7-11.8c0.3-3,1.4-5.4,3-6.3c0.3-0.2,0.6-0.3,0.9-0.5
		C143.9,220.1,151.2,224.9,158.7,228.6z M113,253.9c-5-4-9.6-9.3-13.7-15.7c0.3-0.2,0.6-0.5,0.9-0.7c0.9-0.8,1.7-1.8,2.4-2.9
		c0.6,1.7,1.6,3.2,2.8,4.2c1.7,1.4,6.6,2.3,10.2,0.4c0.4-0.2,0.8-0.5,1.3-0.8c1.6-1.3,3.3-3.6,2.9-7.9l-1.8,0.1l-2.8,0.2
		c0.2,3.1-1.1,3.9-1.6,4.2c-1.8,1.1-4.8,0.6-5.4,0.2c-0.9-0.8-1.6-2.4-1.8-4.4c-0.2-2.6,0.5-5.2,2-6.9c1.3-1.4,3.4-2.3,6-2.3
		c1.5,0,3,0.2,4.4,0.6c1.8,0.6,3.5,1.5,4.6,2.6c3.1,3.3,4.4,7.8,3.7,12.7c-1,6.1-4.9,11.8-10.3,14.7
		C115.5,252.8,114.2,253.4,113,253.9z M30,204.7c-0.1-0.2-0.3-0.5-0.3-0.9C29.8,204.1,29.9,204.4,30,204.7z M96.7,233.8
		c-0.1-0.2-0.2-0.4-0.3-0.6c-2.3-4.2-4.4-8.7-6.2-13.5c2.2-1.5,4.3-2.9,6.4-4.5c0.3,0.1,0.6,0.3,0.9,0.5c1.6,1,2.7,3.4,3,6.3
		C100.9,226.6,99.4,231.3,96.7,233.8C96.7,233.8,96.7,233.8,96.7,233.8z M95.5,209.8c-2.8-0.5-5.8-0.2-8.4,0.7
		c-0.8-2.8-1.6-5.7-2.3-8.6c7.7-5,16.9-5.3,25.6-2.8c-2.5,1.4-4.8,2.9-7,4.6C100.8,205.7,98.2,207.7,95.5,209.8z M126.7,221.6
		c-1.9-2-4.6-3.4-7.6-4.1c-0.2-0.1-0.5-0.1-0.7-0.2c-1.3-0.3-2.7-0.4-4.1-0.4c-3.7,0.1-6.9,1.4-9,3.6c-0.6-3.7-2.1-6.7-4.4-8.5
		c1.9-1.5,3.8-3,5.6-4.4c3.2-2.4,6.7-4.5,10.4-6.2c1,0.5,2.1,1,3.1,1.5c2.6,1.4,5.1,3,7.4,4.7c1.8,1.5,3.7,2.9,5.6,4.4
		c-2.5,1.9-4.2,5.4-4.6,9.5c-0.1,0.6-0.1,1.2-0.1,1.8C127.7,222.7,127.3,222.1,126.7,221.6z M31.9,228.4c-2.9-1.3-5.6-3.1-8.4-5.3
		c-5.1-4.3-8.1-11.1-7.8-17.8c0.2-5.4,2.6-9.9,6.6-12.7c0.9-0.6,2.1-1.1,3.3-1.4c0.8,3.2,1.7,6.2,2.8,9.3c-0.2-0.1-0.5-0.3-0.7-0.3
		c-1.5-0.4-3.1,0.7-3.2,2.2c-0.2,3.8,1.8,6.1,3.1,7.2c1.5,1.2,3.5,2,5.3,2.2c0.3,0.6,0.5,1.2,0.8,1.8c-0.1,0.5-0.1,1.1-0.1,1.6
		c0,1.8,0.3,3.5,0.8,5.1c1.5,4.6,5,8.4,9.4,10.2c0.2,0.3,0.5,0.6,0.7,1C40.3,231.2,36,230.3,31.9,228.4z M141.7,264
		c-9,0-17.2-2.3-24.4-6.9c0.5-0.3,1.1-0.5,1.6-0.8c6.6-3.6,11.5-10.5,12.7-18c0.1-0.9,0.2-1.8,0.2-2.7c0.5,0.7,1.1,1.3,1.7,1.9
		c5.8,5.4,16.4,6.1,23.1,1.4c2.9-2,5.2-4.8,6.6-8.1c0.9,0.4,1.8,0.8,2.8,1.1c6.4,2.5,13,4.2,19.5,4.5
		C173.1,254.8,158.5,264,141.7,264z M235.6,224.9c0.2-0.3,0.4-0.5,0.5-0.8c0.1,0.5,0.2,1,0.3,1.5
		C236.2,225.4,235.9,225.2,235.6,224.9z M259.2,201.2c5.5,4.5,8.8,12,8.5,19.1c-0.2,3.6-1.3,8.6-6.1,11.8
		c-4.8,3.3-12.8,2.9-16.9-0.9c-2.7-2.5-4.2-7.2-3.7-11.8c0.3-3,1.4-5.4,3-6.3c2.8-1.8,8-1.5,10.8,0.6c1.2,0.9,1.9,2.1,1.9,3.4
		c0,1.1,0.7,2.1,1.8,2.4c1.6,0.5,3.2-0.7,3.2-2.4c0-3-1.4-5.6-3.9-7.5c-3-2.2-7.3-3.1-11.1-2.6c1.7-3.3,3.3-6.6,4.7-10
		C254.3,197.9,257,199.3,259.2,201.2z"/>
</g>

<style>
    @media (prefers-color-scheme:dark){:root{filter:invert(100%)}}
</style>
</svg>
